<svg height="468pt" viewBox="0 -50 468.55361 468" width="468pt" xmlns="http://www.w3.org/2000/svg"><path d="m97.222656 96.59375c-18.261718 18.265625-49.273437 16.859375-69.261718-3.140625l-3.699219 3.699219c-38.796875 38.796875-28.753907 97.628906 13.726562 140.113281 42.484375 42.492187 101.304688 52.554687 140.117188 13.738281l3.699219-3.699218c-20-20-21.390626-51-3.125-69.265626l50.472656-50.472656-81.453125-81.449218zm0 0" fill="#45988e"/><path d="m147.699219 46.117188-50.476563 50.476562c-2.832031 2.808594-6.046875 5.210938-9.542968 7.132812.5 1.640626 1.394531 3.136719 2.601562 4.359376l76.902344 76.902343c1.222656 1.203125 2.71875 2.097657 4.359375 2.597657 1.921875-3.496094 4.320312-6.707032 7.128906-9.542969l50.480469-50.476563zm0 0" fill="#348277"/><path d="m41.105469 105.195312 1.335937-1.339843c-5.355468-2.660157-10.25-6.171875-14.480468-10.402344l-3.699219 3.699219c-38.796875 38.796875-28.753907 97.628906 13.726562 140.113281 42.484375 42.492187 101.304688 52.554687 140.117188 13.738281l3.699219-3.699218c-4.230469-4.230469-7.742188-9.125-10.402344-14.480469l-1.335938 1.335937c-32.53125 32.539063-81.839844 24.09375-117.457031-11.503906-35.609375-35.601562-44.042969-84.921875-11.503906-117.460938zm0 0" fill="#274d59"/><path d="m103.855469 79.304688 75.871093-75.867188c4.199219-4.199219 11.007813-4.199219 15.203126 0l76.902343 76.898438c4.199219 4.199218 4.199219 11.003906 0 15.203124l-75.871093 75.871094c-4.199219 4.199219-11.007813 4.199219-15.207032 0l-76.898437-76.898437c-4.199219-4.199219-4.199219-11.007813 0-15.207031zm0 0" fill="#f9ad6a"/><path d="m271.828125 80.34375-14.839844-14.839844c4.195313 4.195313 4.195313 11 0 15.199219l-75.867187 75.875c-4.199219 4.195313-11.003906 4.195313-15.203125 0l14.839843 14.839844c4.199219 4.195312 11.003907 4.195312 15.203126 0l75.867187-75.871094c4.195313-4.199219 4.195313-11.003906 0-15.203125zm0 0" fill="#ea8c46"/><path d="m217.003906 150.777344 155.574219 155.578125c6.785156 6.78125 12.136719 14.859375 15.742187 23.75l6.652344 16.402343c8.238282 20.320313 34.195313 27.777344 50.902344 13.597657.4375-.367188 10.964844-10.855469 18.964844-18.828125 2.371094-2.367188 3.703125-5.578125 3.703125-8.929688 0-3.351562-1.332031-6.5625-3.703125-8.929687l-44.402344-44.398438-165.828125-165.847656zm0 0" fill="#f9ad6a"/><path d="m420.46875 279.027344-16.332031-16.332032-37.601563 37.597657 6.050782 6.054687c6.785156 6.78125 12.136718 14.859375 15.742187 23.75l6.652344 16.402344c8.238281 20.320312 34.195312 27.777344 50.902343 13.597656.4375-.371094 10.964844-10.855468 18.964844-18.828125 2.371094-2.367187 3.703125-5.578125 3.703125-8.925781 0-3.351562-1.332031-6.5625-3.703125-8.929688zm0 0" fill="#d36c4f"/><path d="m464.847656 323.40625-16.246094-16.242188c2.371094 2.363282 3.703126 5.578126 3.703126 8.925782 0 3.351562-1.332032 6.5625-3.703126 8.929687-8 7.972657-18.527343 18.453125-18.960937 18.828125-9.511719 7.957032-22.808594 9.582032-33.953125 4.144532 8.886719 19.164062 33.910156 25.941406 50.199219 12.101562.4375-.371094 10.964843-10.855469 18.964843-18.828125 2.371094-2.367187 3.703126-5.578125 3.703126-8.929687 0-3.351563-1.335938-6.5625-3.707032-8.929688zm0 0" fill="#c1573e"/><path d="m3.652344 130.824219c-1.933594 6.242187-3.101563 12.695312-3.476563 19.21875l20.644531.929687c.242188-6.535156 1.433594-13.003906 3.535157-19.199218zm0 0" fill="#45988e"/><path d="m4.671875 184.253906c2.1875 6.828125 5 13.441406 8.398437 19.757813l24.945313 1.121093c-4.28125-6.21875-7.886719-12.878906-10.753906-19.863281zm0 0" fill="#45988e"/><path d="m244.722656 161.535156 9.898438-9.898437 89.6875 89.6875-9.898438 9.898437zm0 0" fill="#ea8c46"/><path d="m114.980469 19.488281 8.34375-8.34375c8.082031-8.078125 21.183593-8.078125 29.261719 0l9.714843 9.714844-37.617187 37.617187-9.714844-9.710937c-8.085938-8.085937-8.078125-21.195313.011719-29.277344zm0 0" fill="#d36c4f"/><path d="m152.589844 11.144531 1.257812 1.261719zm0 0" fill="#c1573e"/><path d="m116.242188 50.015625 37.605468-37.609375 8.453125 8.457031-37.605469 37.605469zm0 0" fill="#c1573e"/><path d="m216.800781 150.574219 37.605469-37.605469 19.445312 19.441406-37.609374 37.605469zm0 0" fill="#d36c4f"/><path d="m216.796875 150.574219 37.605469-37.605469 9.503906 9.5-37.609375 37.605469zm0 0" fill="#c1573e"/><path d="m262.859375 71.371094c10.621094-10.996094 10.46875-28.476563-.335937-39.289063l-19.335938-19.335937c-10.8125-10.804688-28.292969-10.957032-39.289062-.335938zm0 0" fill="#45988e"/><path d="m203.898438 12.410156 58.960937 58.960938c3.375-3.5 5.777344-7.820313 6.96875-12.53125l-53.402344-53.386719c-4.707031 1.191406-9.027343 3.585937-12.527343 6.957031zm0 0" fill="#348277"/></svg>