<svg height="512pt" viewBox="-16 0 511 512" width="512pt" xmlns="http://www.w3.org/2000/svg"><path d="m408.777344 400.265625-104.1875 104.1875v-104.1875zm0 0" fill="#edfafa"/><path d="m408.777344 7.546875v392.71875h-104.1875v104.1875h-296.542969v-496.90625zm0 0" fill="#cbf7f7"/><path d="m384.734375 7.546875h24.042969v392.71875h-24.042969zm0 0" fill="#64e1dc"/><path d="m208.410156 199.898438s0 32.058593-24.042968 32.058593c-24.042969 0-40.074219 0-64.117188 0s-24.042969-32.058593-24.042969-32.058593c0-21.722657 12.261719-40.476563 30.296875-49.851563l25.804688 25.804687 25.808594-25.804687c18.03125 9.375 30.292968 28.128906 30.292968 49.851563zm0 0" fill="#ff636e"/><path d="m152.308594 143.792969c9.296875 0 18.113281 2.246093 25.808594 6.253906l-25.808594 25.804687-25.808594-25.804687c7.695312-4.007813 16.511719-6.253906 25.808594-6.253906zm0 0" fill="#f2f6fc"/><path d="m152.308594 79.675781c17.714844 0 32.058594 14.347657 32.058594 32.058594 0 17.714844-14.34375 32.058594-32.058594 32.058594s-32.058594-14.34375-32.058594-32.058594c0-17.710937 14.347656-32.058594 32.058594-32.058594zm0 0" fill="#ffbeaa"/><path d="m191.921875 160.285156c-4.058594-4.054687-8.660156-7.5625-13.804687-10.238281l-25.808594 25.804687-25.761719-25.761718-.140625.011718c-5.105469 2.667969-9.679688 6.15625-13.710938 10.183594l39.613282 39.613282zm0 0" fill="#f03049"/><path d="m472.894531 175.851562c0 57.542969-46.644531 104.191407-104.1875 104.191407s-104.191406-46.648438-104.191406-104.191407c0-57.542968 46.648437-104.1875 104.191406-104.1875s104.1875 46.644532 104.1875 104.1875zm0 0" fill="#ffee6e"/><path d="m368.707031 71.664062c-4.074219 0-8.074219.292969-12.023437.746094 51.871094 5.96875 92.167968 49.972656 92.167968 103.441406 0 53.472657-40.296874 97.476563-92.167968 103.445313 3.949218.453125 7.949218.746094 12.023437.746094 57.542969 0 104.1875-46.648438 104.1875-104.191407 0-57.542968-46.644531-104.1875-104.1875-104.1875zm0 0" fill="#ffbc36"/><path d="m47.648438 183.867188h-15.089844v-151.808594h39.605468v15.089844h-24.515624zm0 0" fill="#fff"/><path d="m32.558594 199.898438h15.089844v16.027343h-15.089844zm0 0" fill="#fff"/><path d="m368.707031 32.058594h16.027344v15.089844h-16.027344zm0 0" fill="#fff"/><path d="m336.648438 32.058594h16.027343v15.089844h-16.027343zm0 0" fill="#fff"/><g fill="#231f20"><path d="m401.234375 55.632812h15.089844v-55.632812h-256v15.089844h240.910156zm0 0"/><path d="m15.589844 15.089844h120.691406v-15.089844h-135.78125v512h119.75v-15.089844h-104.660156zm0 0"/><path d="m401.234375 392.71875h-104.191406v104.191406h-152.75v15.089844h163.417969l108.613281-108.613281v-107.3125h-15.089844zm-10.671875 15.089844-78.429688 78.429687v-78.429687zm0 0"/><path d="m96.207031 272.5h184.335938v15.089844h-184.335938zm0 0"/><path d="m56.132812 312.574219h304.558594v15.089843h-304.558594zm0 0"/><path d="m56.132812 352.644531h304.558594v15.089844h-304.558594zm0 0"/><path d="m56.132812 392.71875h224.410157v15.089844h-224.410157zm0 0"/><path d="m56.132812 432.792969h176.324219v15.089843h-176.324219zm0 0"/><path d="m112.707031 111.734375c0 11.984375 5.355469 22.734375 13.792969 30.003906-22.265625 9.921875-37.839844 32.25-37.839844 58.160157 0 13.695312 6.605469 39.601562 31.589844 39.601562h64.117188c24.988281 0 31.589843-25.90625 31.589843-39.601562 0-25.910157-15.570312-48.238282-37.839843-58.160157 8.4375-7.269531 13.796874-18.019531 13.796874-30.003906 0-21.835937-17.765624-39.601563-39.605468-39.601563-21.835938 0-39.601563 17.765626-39.601563 39.601563zm51.871094 41.179687-12.269531 12.269532-12.269532-12.269532c3.921876-1.023437 8.03125-1.574218 12.269532-1.574218 4.238281 0 8.347656.550781 12.269531 1.574218zm36.289063 46.960938c0 .070312-.070313 7.0625-2.640626 13.699219-3.753906 9.714843-9.707031 10.835937-13.859374 10.835937h-64.117188c-4.148438 0-10.101562-1.121094-13.859375-10.835937-2.566406-6.640625-2.636719-13.628907-2.636719-13.675781 0-16.800782 8.574219-31.628907 21.578125-40.351563l26.976563 26.976563 26.980468-26.976563c13 8.71875 21.578126 23.542969 21.578126 40.328125zm-48.558594-112.652344c13.515625 0 24.511718 10.996094 24.511718 24.511719 0 13.519531-10.996093 24.515625-24.511718 24.515625s-24.511719-10.996094-24.511719-24.515625c0-13.515625 10.996094-24.511719 24.511719-24.511719zm0 0"/><path d="m368.707031 64.117188c-61.613281 0-111.738281 50.125-111.738281 111.734374 0 61.613282 50.125 111.738282 111.738281 111.738282 30.71875 0 59.351563-12.210938 80.625-34.378906l-10.886719-10.449219c-18.402343 19.175781-43.167968 29.738281-69.738281 29.738281-53.292969 0-96.648437-43.355469-96.648437-96.648438 0-53.289062 43.355468-96.644531 96.648437-96.644531 53.289063 0 96.644531 43.355469 96.644531 96.644531 0 18.308594-5.140624 36.125-14.863281 51.523438l12.761719 8.058594c11.246094-17.816406 17.191406-38.417969 17.191406-59.582032 0-61.609374-50.125-111.734374-111.734375-111.734374zm0 0"/><path d="m376.25 239.96875v-56.570312h56.574219v-15.089844h-56.574219v-56.574219h-15.089844v56.574219h-56.570312v15.089844h56.570312v56.570312zm0 0"/></g></svg>