<?xml version="1.0" encoding="iso-8859-1"?>
<!-- Generator: Adobe Illustrator 21.0.0, SVG Export Plug-In . SVG Version: 6.00 Build 0)  -->
<svg version="1.1" id="Capa_1" xmlns="http://www.w3.org/2000/svg" xmlns:xlink="http://www.w3.org/1999/xlink" x="0px" y="0px"
	 viewBox="0 0 512 512" style="enable-background:new 0 0 512 512;" xml:space="preserve">
<path style="fill:#FFE37D;" d="M419.46,0c-47.696,0-86.499,38.803-86.499,86.499c0,47.697,38.803,86.5,86.499,86.5
	c47.697,0,86.5-38.803,86.5-86.5C505.96,38.803,467.156,0,419.46,0z"/>
<path style="fill:#005E7F;" d="M448.123,88.407c-5.917-5.917-15.513-5.917-21.431,0c-3.988,3.987-10.476,3.988-14.463-0.001
	c-5.919-5.917-15.514-5.916-21.432,0.001c-5.917,5.918-5.916,15.514,0.001,21.432c7.902,7.901,18.283,11.852,28.663,11.852
	s20.761-3.951,28.663-11.853C454.042,103.92,454.042,94.324,448.123,88.407z"/>
<path style="fill:#FFC247;" d="M419.46,0v172.998c47.696,0,86.5-38.803,86.5-86.5C505.96,38.803,467.156,0,419.46,0z"/>
<path style="fill:#002E41;" d="M426.691,88.407c-1.993,1.993-4.612,2.989-7.232,2.989v30.294l0,0c10.38,0,20.76-3.95,28.663-11.853
	c5.918-5.917,5.918-15.512,0-21.431C442.205,82.487,432.611,82.489,426.691,88.407z"/>
<path style="fill:#FFE37D;" d="M92.539,0C44.844,0,6.041,38.803,6.041,86.499c0,47.697,38.803,86.5,86.499,86.5
	s86.5-38.803,86.5-86.5C179.039,38.803,140.235,0,92.539,0z"/>
<path style="fill:#005E7F;" d="M121.203,88.407c-5.917-5.919-15.513-5.917-21.431,0c-3.987,3.986-10.475,3.986-14.463,0
	c-5.918-5.919-15.514-5.917-21.431,0c-5.918,5.918-5.917,15.513,0,21.431c7.902,7.902,18.282,11.853,28.663,11.853
	c10.38,0,20.76-3.95,28.663-11.853C127.12,103.92,127.12,94.325,121.203,88.407z"/>
<path style="fill:#96CB52;" d="M256,207.509c-8.369,0-15.154-6.785-15.154-15.154v-33.581l-29.082-16.79
	c-7.248-4.185-9.731-13.452-5.546-20.701c4.184-7.248,13.452-9.733,20.701-5.546L256,132.526l29.081-16.79
	c7.248-4.186,16.516-1.702,20.701,5.546c4.185,7.249,1.702,16.517-5.546,20.701l-29.081,16.79v33.581
	C271.154,200.724,264.369,207.509,256,207.509z"/>
<path style="fill:#80DBFF;" d="M279.597,362.391h-47.193c-49.694,0-90.124,40.43-90.124,90.124v44.331
	c0,8.369,6.785,15.154,15.154,15.154h197.132c8.369,0,15.154-6.785,15.154-15.154v-44.331
	C369.72,402.82,329.291,362.391,279.597,362.391z"/>
<path style="fill:#FFCEA1;" d="M306.12,236.733h-50.119c-35.991,0-65.274,29.281-65.274,65.274v44.533
	c0,35.992,29.282,65.274,65.274,65.274c35.992,0,65.274-29.281,65.274-65.274v-94.653
	C321.274,243.518,314.489,236.733,306.12,236.733z"/>
<path style="fill:#C8366D;" d="M326.585,236.733H256c-35.991,0-65.274,29.281-65.274,65.274v2.029
	c0,8.369,6.785,15.154,15.154,15.154h68.556c37.111,0,67.303-30.192,67.303-67.302C341.74,243.518,334.955,236.733,326.585,236.733z
	"/>
<path style="fill:#19CFFC;" d="M279.597,362.391h-23.6V512h98.57c8.369,0,15.154-6.785,15.154-15.154v-44.331
	C369.72,402.82,329.291,362.391,279.597,362.391z"/>
<path style="fill:#FFB883;" d="M306.12,236.733h-50.119c-0.001,0-0.002,0-0.003,0v175.082c0.001,0,0.002,0,0.003,0
	c35.992,0,65.274-29.281,65.274-65.274v-94.653C321.274,243.518,314.489,236.733,306.12,236.733z"/>
<path style="fill:#86375F;" d="M326.585,236.733H256c-0.001,0-0.002,0-0.003,0v82.457h18.44c37.111,0,67.303-30.192,67.303-67.302
	C341.74,243.518,334.955,236.733,326.585,236.733z"/>
<path style="fill:#47AA4B;" d="M285.081,115.735L256,132.525l-0.003-0.002v74.984c0.001,0,0.002,0,0.003,0
	c8.369,0,15.154-6.785,15.154-15.154v-33.581l29.081-16.79c7.249-4.185,9.732-13.452,5.546-20.701
	C301.596,114.033,292.328,111.55,285.081,115.735z"/>
<path id="SVGCleanerId_0" style="fill:#FFC247;" d="M92.539,0v172.998c47.696,0,86.5-38.803,86.5-86.5
	C179.039,38.803,140.235,0,92.539,0z"/>
<path id="SVGCleanerId_1" style="fill:#002E41;" d="M99.771,88.407c-1.993,1.993-4.612,2.989-7.232,2.989v30.294l0,0
	c10.38,0,20.76-3.95,28.663-11.853c5.918-5.917,5.918-15.512,0-21.431C115.285,82.487,105.69,82.489,99.771,88.407z"/>
<g>
	<path id="SVGCleanerId_0_1_" style="fill:#FFC247;" d="M92.539,0v172.998c47.696,0,86.5-38.803,86.5-86.5
		C179.039,38.803,140.235,0,92.539,0z"/>
</g>
<g>
	<path id="SVGCleanerId_1_1_" style="fill:#002E41;" d="M99.771,88.407c-1.993,1.993-4.612,2.989-7.232,2.989v30.294l0,0
		c10.38,0,20.76-3.95,28.663-11.853c5.918-5.917,5.918-15.512,0-21.431C115.285,82.487,105.69,82.489,99.771,88.407z"/>
</g>
<g>
</g>
<g>
</g>
<g>
</g>
<g>
</g>
<g>
</g>
<g>
</g>
<g>
</g>
<g>
</g>
<g>
</g>
<g>
</g>
<g>
</g>
<g>
</g>
<g>
</g>
<g>
</g>
<g>
</g>
</svg>
