<svg height="471pt" viewBox="0 -69 471.86401 471" width="471pt" xmlns="http://www.w3.org/2000/svg"><path d="m471.863281 38.539062c0 7.925782-6.425781 14.347657-14.351562 14.347657h-443.160157c-7.925781 0-14.351562-6.421875-14.351562-14.347657 0-7.925781 6.425781-14.351562 14.351562-14.351562h443.160157c7.925781 0 14.351562 6.425781 14.351562 14.351562zm0 0" fill="#f9ad6a"/><path d="m394.695312 24.1875h62.820313v28.699219h-62.820313zm0 0" fill="#ea8c46"/><path d="m13.804688 24.1875h62.820312v28.699219h-62.820312zm0 0" fill="#ea8c46"/><path d="m451.132812 109.554688h-41.734374c0 30.652343-26.902344 55.5-57.554688 55.5h-234.21875c-30.652344 0-55.496094-24.847657-55.496094-55.5h-41.738281v224.132812h431.082031zm0 0" fill="#f9ad6a"/><g fill="#ea8c46"><path d="m20.390625 318.96875h431.082031v14.722656h-431.082031zm0 0"/><path d="m37.96875 333.6875h41.730469v-183.6875c-11.214844-10.460938-17.578125-25.109375-17.574219-40.445312h-24.160156zm0 0"/><path d="m388.53125 333.6875h41.734375v-224.132812h-20.871094c-.183593 16.550781-7.855469 32.121093-20.867187 42.347656zm0 0"/><path d="m451.429688 305.8125-.320313-6.183594c-26.679687 1.425782-50.304687-10.949218-75.304687-24-25.515626-13.335937-51.902344-27.125-84.59375-28.632812-37.421876-1.773438-74.667969 13.972656-107.558594 27.828125-24.503906 10.316406-47.648438 20.066406-66.707032 20.917969-22.671874.980468-42.269531-6.355469-59.566406-12.859376-13.082031-4.921874-25.445312-9.574218-36.988281-9.574218v14c8.996094 0 19.683594 4 32.0625 8.675781 17.636719 6.632813 39.597656 14.898437 65.117187 13.742187 21.5625-.964843 45.824219-11.199218 71.515626-22 33.0625-13.921874 67.25-28.277343 101.472656-26.746093 29.601562 1.367187 54.59375 14.421875 78.757812 27.058593 24.164063 12.636719 49.199219 25.71875 77.699219 25.71875 1.464844 0 2.945313-.046874 4.425781-.117187zm0 0"/><path d="m20.390625 186.78125 2.234375 6.628906c56.148438-18.878906 176.183594-14.351562 211.359375-4.144531 30.386719 7.699219 61.640625 11.453125 92.988281 11.164063 42.195313 0 88.800782-6.667969 124.253906-27.132813v-8.648437l-3.433593-5.53125c-65.003907 40.34375-176.613281 26.367187-209.910157 16.699218-37.070312-10.757812-157.246093-15.554687-217.492187 3.644532zm0 0"/><path d="m382.015625 327.125c-15.257813-5.917969-29.769531-13.597656-43.242187-22.886719-22.253907-14.324219-41.460938-26.691406-79.027344-20.144531-27.667969 4.820312-48.699219 15.484375-67.25 24.898438-18.726563 9.496093-34.898438 17.699218-53.355469 17.699218v7h33.480469c8.800781-3.429687 17.390625-7.738281 26.203125-12.210937 18.542969-9.410157 37.71875-19.128907 63.328125-23.601563 32.15625-5.597656 47.628906 4.347656 69.039062 18.128906 9.792969 6.542969 20 12.449219 30.550782 17.679688h17.847656zm0 0"/><path d="m317.191406 328.472656c-13.03125-10.914062-28.1875-18.996094-44.507812-23.738281l-3.644532 13.519531c11.480469 3.449219 22.359376 8.65625 32.246094 15.433594h11.242188zm0 0"/><path d="m355.890625 237.648438-.621094 14c28.796875 1.28125 65.253907 5.644531 91.65625 28.195312l4.453125-5.199219v-9.128906c-29.046875-22.109375-66.03125-26.558594-95.488281-27.867187zm0 0"/><path d="m66.101562 250.988281-7.265624 11.96875c16.539062 10.042969 36.265624 13.464844 56 13.464844 20.179687-.429687 40.25-3.097656 59.84375-7.949219l-3.148438-13.648437c-30.875 7.089843-75.402344 14.390625-105.429688-3.835938zm0 0"/><path d="m201.429688 201.707031c-83.308594-13.878906-169.714844-.707031-181.039063 1.136719v7.09375l1.203125 6.898438c.910156-.152344 92.398438-15.511719 177.546875-1.316407 47.164063 7.859375 89.679687 12.964844 131.328125 12.964844 40.824219.140625 81.476562-5.320313 120.820312-16.222656v-8l-1.691406-6.046875c-83.921875 23.539062-154.546875 19.101562-248.167968 3.492187zm0 0"/><path d="m22.183594 245.214844c61.6875-16.355469 222.949218-.699219 224.546875-.554688l1.378906-13.929687c-6.667969-.660157-162.519531-15.777344-227.730469.507812v7.203125zm0 0"/></g><path d="m20.390625.433594h41.734375v333.257812h-41.734375zm0 0" fill="#d36c4f"/><path d="m409.398438.433594h41.734374v333.257812h-41.734374zm0 0" fill="#d36c4f"/><path d="m433.476562.433594h17.65625v333.257812h-17.65625zm0 0" fill="#c1573e"/><path d="m44.472656.433594h17.65625v333.257812h-17.65625zm0 0" fill="#c1573e"/></svg>